PathFileType   4   (X/Y/Z)																																																																																																																							
DataRate	CameraRate	NumFrames	NumMarkers	Units	OrigDataRate	OrigDataStartFrame	OrigNumFrames																																																																																																																
120	120	4	39	mm	120	137	156																																																																																																																
Frame#	Time	Sternum	R.Acromium	L.Acromium	Top.Head	R.ASIS	L.ASIS	V.Sacral	R.Thigh.Upper	R.Thigh.Front	R.Thigh.Rear	R.Knee.Lat	R.Knee.Med	R.Shank.Upper	R.Shank.Front	R.Shank.Rear	R.Ankle.Lat	R.Ankle.Med	R.Heel	R.Midfoot.Sup	R.Midfoot.Lat	R.Toe.Lat	R.Toe.Med	R.Toe.Tip	L.Thigh.Upper	L.Thigh.Front	L.Thigh.Rear	L.Knee.Lat	L.Knee.Med	L.Shank.Upper	L.Shank.Front	L.Shank.Rear	L.Ankle.Lat	L.Ankle.Med	L.Heel	L.Midfoot.Sup	L.Midfoot.Lat	L.Toe.Lat	L.Toe.Med	L.Toe.Tip																																																																															
 	 	X1	Y1	Z1	X2	Y2	Z2	X3	Y3	Z3	X4	Y4	Z4	X5	Y5	Z5	X6	Y6	Z6	X7	Y7	Z7	X8	Y8	Z8	X9	Y9	Z9	X10	Y10	Z10	X11	Y11	Z11	X12	Y12	Z12	X13	Y13	Z13	X14	Y14	Z14	X15	Y15	Z15	X16	Y16	Z16	X17	Y17	Z17	X18	Y18	Z18	X19	Y19	Z19	X20	Y20	Z20	X21	Y21	Z21	X22	Y22	Z22	X23	Y23	Z23	X24	Y24	Z24	X25	Y25	Z25	X26	Y26	Z26	X27	Y27	Z27	X28	Y28	Z28	X29	Y29	Z29	X30	Y30	Z30	X31	Y31	Z31	X32	Y32	Z32	X33	Y33	Z33	X34	Y34	Z34	X35	Y35	Z35	X36	Y36	Z36	X37	Y37	Z37	X38	Y38	Z38	X39	Y39	Z39	
																																																																																																																							
	137	1.4	2391.771101	-0.000992919	1235.092603	2283.528294	-160.4625222	1357.619667	2287.886997	163.6853836	1370.841953	2394.749657	-9.995724821	1605.968341	2367.378865	-119.563877	894.0215711	2372.127194	121.1976851	885.8307067	2190.060601	-5.695750883	920.0403986	2276.323825	-151.852957	623.4611985	2313.483509	-72.89581202	564.5040254	2248.747173	-144.0380039	526.7608165	2203.060563	-128.7803171	463.3998521	2199.011984	-28.27664901	450.1000024	2162.214309	-139.9773559	395.8030841	2216.952421	-92.759033	349.3111554	2156.076662	-148.0192813	320.8893376	2092.918329	-126.2596959	81.55181234	2102.737822	-48.83628676	91.92376072	2031.546026	-81.79932302	64.34641974	2159.097989	-50.48617332	68.22416238	2153.582587	-145.6838404	50.94675505	2231.899171	-153.7519611	25.82322005	2234.530406	-57.55224411	37.30647117	2288.546235	-85.7250635	35.09010598	2371.950047	155.8898652	669.8457919	2445.383405	93.1736068	667.8696302	2404.778698	143.1256019	585.5447341	2433.073075	130.2344758	479.3460828	2433.719614	33.90932835	480.3259825	2451.950302	146.028905	411.8801633	2498.733367	97.96343807	377.8994766	2445.466529	155.397025	372.1152335	2518.908445	125.837295	109.6384448	2517.964797	46.58044596	130.1255952	2452.428868	79.29350631	82.17744032	2601.648085	55.87355549	115.6088433	2585.679702	143.3687015	112.2837546	2644.825669	152.6622596	103.5371975	2659.631116	62.03409965	106.6017924	2702.211274	84.48225282	116.220329
	138	1.40833	2398.837767	-0.000992919	1234.258901	2290.617481	-160.4625222	1356.805855	2294.978613	163.6853836	1370.027341	2401.884483	-9.995724821	1605.134085	2374.342811	-119.563877	893.1166199	2379.083967	121.1976851	884.9216013	2197.047395	-5.695750883	919.290684	2281.578271	-151.852957	622.5826125	2318.220675	-72.89581202	563.3025599	2253.156575	-144.0380039	526.1272198	2206.917324	-128.7803171	463.1684253	2202.75253	-28.27664901	449.9045086	2165.467541	-139.9773559	395.9416274	2219.780097	-92.759033	348.9532602	2158.648093	-148.0192813	321.0868662	2093.313319	-126.2596959	82.3342885	2103.226837	-48.83628676	92.61640501	2031.844633	-81.79932302	65.49897013	2159.41842	-50.48617332	68.57613601	2153.794696	-145.6838404	51.33368292	2231.952066	-153.7519611	25.71913745	2234.655317	-57.55224411	37.18564913	2288.656172	-85.7250635	34.6303309	2378.37631	155.8898652	668.6871491	2451.802747	93.1736068	666.4686671	2410.926588	143.1256019	584.2782153	2438.870354	130.2344758	477.9867705	2439.520123	33.90932835	478.9645312	2458.661336	146.028905	410.8648957	2506.141061	97.96343807	377.8646239	2453.006055	155.397025	370.9737091	2531.891466	125.837295	110.081257	2530.5219	46.58044596	130.5443479	2465.881351	79.29350631	81.47734406	2614.50962	55.87355549	117.4449829	2598.600177	143.3687015	113.8484476	2657.886514	152.6622596	106.1103672	2672.637626	62.03409965	109.4266426	2715.047813	84.48225282	119.7688905
	139	1.41667	2405.969547	-0.000992919	1233.429344	2297.754922	-160.4625222	1355.981298	2302.116666	163.6853836	1369.202582	2409.033397	-9.995724821	1604.304388	2381.41337	-119.563877	892.2023584	2386.147717	121.1976851	884.0034051	2204.139753	-5.695750883	918.5236587	2286.962442	-151.852957	621.7051156	2323.091049	-72.89581202	562.1105344	2257.70803	-144.0380039	525.4990088	2210.92628	-128.7803171	462.9422668	2206.646986	-28.27664901	449.7148468	2168.868642	-139.9773559	396.0974027	2222.737807	-92.759033	348.6013674	2161.346962	-148.0192813	321.3099407	2093.77431	-126.2596959	83.18106235	2103.783891	-48.83628676	93.36968503	2032.199882	-81.79932302	66.75676247	2159.791868	-50.48617332	68.95335458	2154.049273	-145.6838404	51.75012651	2232.027992	-153.7519611	25.59675743	2234.810319	-57.55224411	37.04433845	2288.792252	-85.7250635	34.11637303	2384.859191	155.8898652	667.478163	2458.276984	93.1736068	664.9899994	2417.099214	143.1256019	582.9502409	2444.652381	130.2344758	476.5568751	2445.305737	33.90932835	477.5322427	2465.243635	146.028905	409.7631625	2513.325026	97.96343807	377.6458452	2460.32642	155.397025	369.7742895	2544.019079	125.837295	110.3840071	2542.271634	46.58044596	130.8182979	2478.440612	79.29350631	80.7752515	2626.510085	55.87355549	118.9781907	2610.656636	143.3687015	115.142356	2670.052833	152.6622596	108.2984217	2684.752304	62.03409965	111.8365758	2727.001851	84.48225282	122.8166442
	140	1.425	2413.170002	-0.000992919	1232.607183	2304.945522	-160.4625222	1355.150434	2309.306201	163.6853836	1368.372068	2416.204025	-9.995724821	1603.482472	2388.590748	-119.563877	891.2830079	2393.318617	121.1976851	883.0803174	2211.337978	-5.695750883	917.7443325	2292.487813	-151.852957	620.8330248	2328.109933	-72.89581202	560.9343186	2262.418902	-144.0380039	524.8783677	2215.108533	-128.7803171	462.7204475	2210.717262	-28.27664901	449.529779	2172.440419	-139.9773559	396.2690642	2225.847566	-92.759033	348.254098	2164.195566	-148.0192813	321.5578701	2094.322314	-126.2596959	84.09386267	2104.429996	-48.83628676	94.18517155	2032.63126	-81.79932302	68.12990151	2160.236317	-50.48617332	69.3503523	2154.362285	-145.6838404	52.19155841	2232.13865	-153.7519611	25.44241843	2235.008469	-57.55224411	36.8683797	2288.966423	-85.7250635	33.52753888	2391.40868	155.8898652	666.2316646	2464.816013	93.1736068	663.4519505	2423.312755	143.1256019	581.5763716	2450.443177	130.2344758	475.0744207	2451.100402	33.90932835	476.0471858	2471.715548	146.028905	408.5830799	2520.30365	97.96343807	377.2376082	2467.437493	155.397025	368.5207883	2555.261356	125.837295	110.4999585	2553.187845	46.58044596	130.9037414	2490.060399	79.29350631	80.04293955	2637.629639	55.87355549	120.1347425	2621.826498	143.3687015	116.0966508	2681.305296	152.6622596	110.0122201	2695.958358	62.03409965	113.7379103	2738.064156	84.48225282	125.256933
